<svg xmlns="http://www.w3.org/2000/svg" viewBox="0 0 1024 500" height="500" width="2024">
  <g
    style="font-style:oblique;font-weight:300;font-size:32px;line-height:1;font-family:Lato;font-variant-ligatures:none;text-align:center;text-anchor:middle" />
  <g style="font-style:normal;font-weight:800;font-size:72px;line-height:1;font-family:&quot;Montserrat ExtraBold Alt1&quot;;font-variant-ligatures:none;text-align:center;text-anchor:middle"
    stroke-width="0" stroke-miterlimit="2">
    <path
      style="font-style:normal;font-weight:800;font-size:72px;line-height:1;font-family:&quot;Montserrat ExtraBold Alt1&quot;;font-variant-ligatures:none;text-align:center;text-anchor:middle"
      d="M384.832-50.4H37.72v.336zm14.616 22.32L420.04-50.4h-15.696l-19.512 20.952-14.112 15.192V0h14.112v-12.6l5.328-5.688L404.56 0h16.56z"
      fill="#2A2728" transform="translate(-3085, 435)scale(7)" />
    <path
      style="font-style:normal;font-weight:800;font-size:72px;line-height:1;font-family:&quot;Montserrat ExtraBold Alt1&quot;;font-variant-ligatures:none;text-align:center;text-anchor:middle"
      d="M384.832-50.4H370.72v21.456l14.112-15.336z" fill="#E8545A" transform="translate(-3085, 435)scale(7)" />
    <path
      style="font-style:normal;font-weight:800;font-size:72px;line-height:1;font-family:&quot;Montserrat ExtraBold Alt1&quot;;font-variant-ligatures:none;text-align:center;text-anchor:middle"
      d="M430.945-1.944C434.257-.216 438.073.648 442.25.648s7.992-.864 11.376-2.592c3.312-1.728 5.976-4.104 7.848-7.2 1.872-3.024 2.808-6.552 2.808-10.44q0-5.832-2.808-10.368c-1.872-3.024-4.536-5.4-7.848-7.128-3.384-1.728-7.2-2.592-11.376-2.592-4.248 0-8.064.864-11.376 2.592s-5.976 4.104-7.848 7.128q-2.808 4.644-2.808 10.368c0 3.888.936 7.416 2.808 10.44 1.872 3.096 4.536 5.472 7.92 7.2zm17.208-10.728c-1.584 1.656-3.528 2.448-5.904 2.448-2.448 0-4.392-.792-5.904-2.448-1.584-1.656-2.304-3.96-2.304-6.912 0-2.88.72-5.112 2.304-6.768 1.512-1.584 3.456-2.448 5.904-2.448 2.376 0 4.32.864 5.904 2.448 1.512 1.656 2.304 3.888 2.304 6.768 0 2.952-.792 5.256-2.304 6.912m63.937-40.752h-13.68v17.784c-2.591-2.664-6.191-4.032-10.8-4.032-3.6 0-6.84.864-9.72 2.448-2.951 1.656-5.255 4.032-6.983 7.056s-2.52 6.552-2.52 10.584.792 7.632 2.52 10.656c1.728 3.096 4.032 5.472 6.984 7.128 2.88 1.656 6.12 2.448 9.72 2.448q7.56 0 11.448-4.536V0h13.032zm-15.767 40.752c-1.584 1.656-3.528 2.448-5.832 2.448-2.448 0-4.392-.792-5.904-2.448-1.584-1.656-2.304-3.96-2.304-6.912 0-2.88.72-5.112 2.304-6.768 1.512-1.584 3.456-2.448 5.904-2.448 2.376 0 4.32.864 5.832 2.448 1.512 1.656 2.304 3.888 2.304 6.768 0 2.952-.792 5.256-2.304 6.912m64.171-3.384c.144-2.16.216-3.24.216-3.384q0-6.264-2.808-10.8c-1.872-3.024-4.32-5.4-7.488-6.984s-6.696-2.448-10.584-2.448q-6.156 0-11.016 2.592c-3.312 1.728-5.832 4.176-7.704 7.2s-2.736 6.48-2.736 10.296c0 3.888.936 7.416 2.808 10.44 1.872 3.096 4.608 5.472 8.064 7.2S536.662.648 541.27.648c7.272 0 12.816-2.088 16.632-6.336l-7.2-7.488c-1.44 1.224-2.808 2.088-4.176 2.592-1.368.576-2.952.792-4.824.792-2.52 0-4.608-.504-6.264-1.584s-2.736-2.664-3.312-4.68zm-25.92-12.096c1.44-1.152 3.168-1.8 5.328-1.8 2.088 0 3.816.648 5.256 1.8 1.44 1.224 2.304 2.88 2.736 4.896H531.91c.36-2.016 1.224-3.672 2.664-4.896M584.8-13.68 595.742 0h16.56l-17.568-22.32 16.2-16.704h-16.2l-13.968 13.608v-28.008h-13.68V0h13.68v-9.576zm38.24 11.736c3.31 1.728 7.126 2.592 11.302 2.592s7.992-.864 11.376-2.592c3.312-1.728 5.976-4.104 7.848-7.2 1.872-3.024 2.808-6.552 2.808-10.44q0-5.832-2.808-10.368c-1.872-3.024-4.536-5.4-7.848-7.128-3.384-1.728-7.2-2.592-11.376-2.592-4.248 0-8.064.864-11.376 2.592s-5.976 4.104-7.848 7.128q-2.808 4.644-2.808 10.368c0 3.888.936 7.416 2.808 10.44 1.872 3.096 4.536 5.472 7.92 7.2zm17.207-10.728c-1.584 1.656-3.528 2.448-5.904 2.448-2.448 0-4.392-.792-5.904-2.448-1.584-1.656-2.304-3.96-2.304-6.912 0-2.88.72-5.112 2.304-6.768 1.512-1.584 3.456-2.448 5.904-2.448 2.376 0 4.32.864 5.904 2.448 1.512 1.656 2.304 3.888 2.304 6.768 0 2.952-.792 5.256-2.304 6.912"
      fill="#2A2728" transform="translate(-3085, 435)scale(7)" />
  </g>
</svg>